<svg xmlns="http://www.w3.org/2000/svg" fill="none" viewBox="0 0 38 30" class="h-[3rem] w-[14.7172rem]">
<path fill="#E44848" fill-rule="evenodd" d="m6.806 6.865-.141 5.394c2.282 1.174 4.433 1.148 6.962.58 1.003-.393 1.704-.477 2.677 0 2.551.793 4.776.55 7.087-.63l-.136-5.4c0-3.042-1.972-4.211-4.117-3.584-.22.064-.548.358-.548.62l-.05 5.272a.498.498 0 0 1-.997-.005V2.63a2.486 2.486 0 1 0-4.973 0v6.482a.498.498 0 0 1-.996.005l-.05-5.274c0-.26-.313-.554-.53-.618-2.477-.734-4.188.715-4.188 3.64m.695 6.71c-.498-.17-.982-.402-1.465-.633-1.33-.638-3.403-.44-4.803 1.156-.642.732-.145 1.79.778 2.097.446.147.849.397 1.226.677l.13.095c1.163.834 1.912 2.085 1.986 3.514l.07 1.354a8.9 8.9 0 0 0 5.468 7.305 10.86 10.86 0 0 0 8.254 0 8.9 8.9 0 0 0 5.468-7.305q.018-.348.014-.694l.034-.66c.075-1.43.823-2.68 1.987-3.514l.13-.095c.377-.28.78-.53 1.226-.677.923-.307 1.42-1.365.778-2.097-1.4-1.596-3.472-1.794-4.804-1.156-.483.231-.966.463-1.465.633l-1.02.349-.002.013c-1.872.517-3.411.519-5.178-.21-.893-.37-1.795-.439-2.668 0-1.68.522-3.39.743-5.123.197zm7.506 12.59c3.767 0 6.821-4.39 6.821-4.39s-3.054-4.39-6.82-4.39c-3.768 0-6.822 4.39-6.822 4.39s3.054 4.39 6.821 4.39m3.063-4.39a3.063 3.063 0 1 1-6.126 0 3.063 3.063 0 0 1 6.126 0m-3.062 1.39a1.39 1.39 0 1 0 0-2.78 1.39 1.39 0 0 0 0 2.78" >
</path>
</svg>